<svg xmlns="http://www.w3.org/2000/svg" viewBox="0 0 64 64" role="img" aria-label="Prasinos Power LLC logo">
  <rect width="64" height="64" fill="#8dc63f"/>
  <rect x="29" y="5" width="6" height="54" rx="3" fill="#fff"/>
  <path d="M5 15c10.5 0 18.5 8 18.5 18.5C13 33.5 5 25.5 5 15Z" fill="#fff"/>
  <path d="M59 5c0 10.5-8 18.5-18.5 18.5C40.5 13 48.5 5 59 5Z" fill="#fff"/>
  <path d="M5 36.5c10.5 0 18.5 8 18.5 18.5C13 55 5 47 5 36.5Z" fill="#fff"/>
  <path d="M59 27c0 10.5-8 18.5-18.5 18.5C40.5 35 48.5 27 59 27Z" fill="#fff"/>
</svg>
